External Loads File
version=1
nRows=79
nColumns=13
Range=5.000000e-03-10 seconds
endheader
time 	forceRightX 	forceRightY 	forceRightZ 	pointRightX 	pointRightY 	pointRightZ 	forceLeftX 	forceLeftY 	forceLeftZ 	pointLeftX 	pointLeftY 	pointLeftZ 		
0.005000 20.608193 72.424915 -0.000000 0.349840 0.404690 -0.162490 28.184323 109.741921 -0.000000 0.061770 0.246936 -0.398203
0.010000 20.254144 72.451036 -0.000000 0.349770 0.405011 -0.162511 29.627881 110.835482 -0.000000 0.061835 0.246660 -0.398215
0.015000 19.988039 72.483505 -0.000000 0.349685 0.405256 -0.162519 30.748590 111.723474 -0.000000 0.061903 0.246394 -0.398214
0.020000 19.825538 72.504158 -0.000000 0.349606 0.405401 -0.162529 31.478254 112.348433 -0.000000 0.061990 0.246145 -0.398268
0.025000 19.628279 72.530647 -0.000000 0.349431 0.406059 -0.162545 31.667159 112.775172 -0.000000 0.062033 0.245925 -0.398252
0.030000 19.569599 72.519832 -0.000000 0.349341 0.406306 -0.162551 31.647758 112.946599 -0.000000 0.062120 0.245677 -0.398245
0.035000 19.568029 72.526668 -0.000000 0.349251 0.406639 -0.162569 31.292472 112.914408 -0.000000 0.062195 0.245397 -0.398249
0.040000 19.651550 72.576006 -0.000000 0.349156 0.406986 -0.162600 30.673966 112.700803 -0.000000 0.062309 0.245088 -0.398324
0.045000 19.843815 72.674649 -0.000000 0.349065 0.407283 -0.162612 29.959752 112.362003 -0.000000 0.062406 0.244804 -0.398287
0.050000 20.094620 72.839746 -0.000000 0.348968 0.407565 -0.162611 29.248610 111.999036 -0.000000 0.062522 0.244496 -0.398280
0.055000 20.371310 73.081644 -0.000000 0.348852 0.407856 -0.162616 28.626359 111.688897 -0.000000 0.062632 0.244191 -0.398293
0.060000 20.641898 73.400831 -0.000000 0.348727 0.408221 -0.162608 28.108522 111.471174 -0.000000 0.062722 0.243932 -0.398279
0.065000 20.873752 73.786053 -0.000000 0.348575 0.408600 -0.162610 27.646718 111.344273 -0.000000 0.062831 0.243652 -0.398284
0.070000 21.045764 74.215750 -0.000000 0.348436 0.408970 -0.162621 27.174433 111.276421 -0.000000 0.062966 0.243294 -0.398295
0.075000 21.180655 74.650240 -0.000000 0.348273 0.409271 -0.162625 26.708614 111.228233 -0.000000 0.063079 0.242983 -0.398296
0.080000 21.255468 75.065774 -0.000000 0.348134 0.409539 -0.162621 26.256898 111.216779 -0.000000 0.063198 0.242672 -0.398296
0.085000 21.266297 75.451290 -0.000000 0.348001 0.409823 -0.162637 25.880408 111.285464 -0.000000 0.063302 0.242348 -0.398281
0.090000 21.085079 75.843624 -0.000000 0.347863 0.410861 -0.162630 25.413943 111.510298 -0.000000 0.063405 0.242005 -0.398276
0.095000 21.030570 76.145903 -0.000000 0.347737 0.411218 -0.162631 25.308853 111.777702 -0.000000 0.063503 0.241715 -0.398283
0.100000 20.930359 76.387453 -0.000000 0.347608 0.411653 -0.162657 25.307388 112.119987 -0.000000 0.063601 0.241411 -0.398276
0.105000 20.817770 76.546916 -0.000000 0.347457 0.411946 -0.162643 25.481954 112.511780 -0.000000 0.063706 0.241110 -0.398279
0.110000 20.808912 76.593499 -0.000000 0.347316 0.411487 -0.162646 26.027310 112.912073 -0.000000 0.063823 0.240809 -0.398270
0.115000 20.597055 76.614966 -0.000000 0.347197 0.411776 -0.162660 26.490864 113.420859 -0.000000 0.063917 0.240498 -0.398287
0.120000 20.337264 76.573173 -0.000000 0.347091 0.412043 -0.162678 27.059143 113.978100 -0.000000 0.064017 0.240185 -0.398299
0.125000 19.866716 76.521293 -0.000000 0.346976 0.413198 -0.162693 27.395397 114.624868 -0.000000 0.064123 0.239872 -0.398289
0.130000 19.567341 76.383500 -0.000000 0.346851 0.413583 -0.162670 27.936486 115.193472 -0.000000 0.064226 0.239634 -0.398290
0.135000 19.307493 76.231245 -0.000000 0.346727 0.413909 -0.162661 28.371657 115.704017 -0.000000 0.064324 0.239323 -0.398284
0.140000 19.133952 76.095032 -0.000000 0.346599 0.414171 -0.162693 28.733244 116.152824 -0.000000 0.064429 0.238995 -0.398306
0.145000 19.041818 76.016527 -0.000000 0.346429 0.414469 -0.162695 29.034894 116.581816 -0.000000 0.064555 0.238629 -0.398310
0.150000 19.020081 76.027759 -0.000000 0.346262 0.414956 -0.162740 29.264127 117.002795 -0.000000 0.064690 0.238275 -0.398297
0.155000 19.100007 76.140708 -0.000000 0.346076 0.415347 -0.162717 29.406309 117.352842 -0.000000 0.064833 0.237909 -0.398327
0.160000 19.254891 76.382259 -0.000000 0.345860 0.415712 -0.162710 29.321481 117.574381 -0.000000 0.065003 0.237566 -0.398334
0.165000 19.453997 76.780607 -0.000000 0.345614 0.416056 -0.162725 28.915113 117.653354 -0.000000 0.065181 0.237124 -0.398360
0.170000 19.701641 77.341483 -0.000000 0.345348 0.416409 -0.162743 28.254896 117.626150 -0.000000 0.065360 0.236674 -0.398345
0.175000 19.921208 78.067379 -0.000000 0.345061 0.417024 -0.162753 27.364762 117.594716 -0.000000 0.065566 0.236207 -0.398371
0.180000 20.166189 78.904588 -0.000000 0.344748 0.417518 -0.162732 26.478265 117.605428 -0.000000 0.065748 0.235749 -0.398353
0.185000 20.371157 79.805855 -0.000000 0.344418 0.417908 -0.162713 25.629883 117.714111 -0.000000 0.065994 0.235289 -0.398364
0.190000 20.458167 80.713180 -0.000000 0.344063 0.418289 -0.162740 24.794846 117.939577 -0.000000 0.066242 0.234750 -0.398350
0.195000 20.387548 81.581866 -0.000000 0.343737 0.418944 -0.162749 23.914006 118.259670 -0.000000 0.066460 0.234230 -0.398328
0.200000 20.277278 82.379718 -0.000000 0.343403 0.419535 -0.162733 23.077197 118.618178 -0.000000 0.066675 0.233761 -0.398305
0.205000 20.218086 83.120199 -0.000000 0.343063 0.419921 -0.162704 22.348308 119.015518 -0.000000 0.066917 0.233252 -0.398310
0.210000 20.198036 83.839409 -0.000000 0.342724 0.420422 -0.162686 21.708685 119.497068 -0.000000 0.067147 0.232669 -0.398291
0.215000 20.263634 84.522466 -0.000000 0.342383 0.420945 -0.162679 21.247673 120.045979 -0.000000 0.067358 0.232159 -0.398311
0.220000 20.333770 85.144754 -0.000000 0.342059 0.421534 -0.162692 20.870735 120.623262 -0.000000 0.067589 0.231655 -0.398322
0.225000 20.361233 85.658014 -0.000000 0.341721 0.422017 -0.162688 20.564864 121.180594 -0.000000 0.067797 0.231091 -0.398307
0.230000 20.295146 86.029123 -0.000000 0.341426 0.422511 -0.162717 20.356105 121.712385 -0.000000 0.068009 0.230602 -0.398332
0.235000 20.096394 86.254570 -0.000000 0.341259 0.422996 -0.162782 20.263970 122.236556 -0.000000 0.068226 0.230048 -0.398326
0.240000 19.783770 86.352807 -0.000000 0.340978 0.423476 -0.162785 20.295431 122.748383 -0.000000 0.068409 0.229589 -0.398319
0.245000 19.386057 86.364402 -0.000000 0.340690 0.423932 -0.162782 20.377434 123.222794 -0.000000 0.068589 0.229053 -0.398317
0.250000 18.968675 86.323585 -0.000000 0.340424 0.424463 -0.162798 20.448735 123.615841 -0.000000 0.068774 0.228558 -0.398299
0.255000 18.573096 86.251241 -0.000000 0.340165 0.424960 -0.162804 20.442412 123.889665 -0.000000 0.068977 0.228024 -0.398289
0.260000 18.244083 86.146112 -0.000000 0.339899 0.425453 -0.162809 20.386955 124.034436 -0.000000 0.069160 0.227609 -0.398277
0.265000 17.950207 86.015432 -0.000000 0.339638 0.425862 -0.162784 20.300969 124.108739 -0.000000 0.069364 0.227086 -0.398287
0.270000 17.705810 85.864642 -0.000000 0.339379 0.426322 -0.162770 20.291328 124.178849 -0.000000 0.069546 0.226606 -0.398297
0.275000 17.503443 85.714885 -0.000000 0.339150 0.426855 -0.162790 20.367636 124.278432 -0.000000 0.069747 0.226153 -0.398297
0.280000 17.351581 85.585240 -0.000000 0.338910 0.427322 -0.162810 20.494637 124.390214 -0.000000 0.069937 0.225659 -0.398295
0.285000 17.235541 85.493868 -0.000000 0.338662 0.427787 -0.162820 20.597328 124.496893 -0.000000 0.070142 0.225184 -0.398307
0.290000 17.150712 85.452713 -0.000000 0.338406 0.428266 -0.162842 20.647175 124.604151 -0.000000 0.070363 0.224737 -0.398270
0.295000 17.093509 85.471101 -0.000000 0.338139 0.428751 -0.162854 20.633846 124.726682 -0.000000 0.070604 0.224255 -0.398282
0.300000 17.088541 85.543578 -0.000000 0.337899 0.429254 -0.162886 20.581213 124.852191 -0.000000 0.070868 0.223788 -0.398274
0.305000 17.163153 85.642524 -0.000000 0.337650 0.429664 -0.162901 20.505647 124.940672 -0.000000 0.071083 0.223317 -0.398249
0.310000 17.248901 85.735838 -0.000000 0.337399 0.430171 -0.162915 20.279236 124.954987 -0.000000 0.071348 0.222821 -0.398245
0.315000 17.343892 85.772182 -0.000000 0.337142 0.430746 -0.162937 19.904400 124.846313 -0.000000 0.071613 0.222363 -0.398219
0.320000 17.430403 85.726635 -0.000000 0.336844 0.431231 -0.162961 19.441028 124.621019 -0.000000 0.071857 0.221891 -0.398220
0.325000 17.480984 85.613417 -0.000000 0.336551 0.431646 -0.162987 18.986008 124.350377 -0.000000 0.072115 0.221387 -0.398249
0.330000 17.478982 85.461580 -0.000000 0.336225 0.432129 -0.162984 18.594924 124.099217 -0.000000 0.072398 0.220911 -0.398262
0.335000 17.481351 85.272110 -0.000000 0.335961 0.432639 -0.162993 18.320296 123.847384 -0.000000 0.072654 0.220482 -0.398231
0.340000 17.477467 85.034133 -0.000000 0.335651 0.433074 -0.162961 18.079942 123.544383 -0.000000 0.072919 0.220010 -0.398245
0.345000 17.493201 84.709850 -0.000000 0.335394 0.433442 -0.162981 17.896813 123.158765 -0.000000 0.073185 0.219555 -0.398257
0.350000 17.511668 84.277548 -0.000000 0.335128 0.433837 -0.163001 17.780601 122.729008 -0.000000 0.073428 0.219135 -0.398264
0.355000 17.536253 83.746286 -0.000000 0.334881 0.434303 -0.163004 17.763296 122.324398 -0.000000 0.073698 0.218712 -0.398258
0.360000 17.615733 83.146260 -0.000000 0.334608 0.434770 -0.163003 17.909853 121.995299 -0.000000 0.073946 0.218294 -0.398255
0.365000 17.796868 82.516732 -0.000000 0.334308 0.435151 -0.162999 18.246739 121.754013 -0.000000 0.074175 0.217909 -0.398252
0.370000 18.066987 81.907953 -0.000000 0.334056 0.435544 -0.163001 18.669286 121.576048 -0.000000 0.074434 0.217501 -0.398250
0.375000 18.421620 81.357379 -0.000000 0.333794 0.435995 -0.162999 19.082697 121.409283 -0.000000 0.074651 0.217105 -0.398254
0.380000 18.866240 80.876578 -0.000000 0.333550 0.436350 -0.162924 19.491325 121.229100 -0.000000 0.074870 0.216754 -0.398267
0.385000 19.265629 80.496431 -0.000000 0.332961 0.436739 -0.162770 19.768781 121.087121 -0.000000 0.075097 0.216371 -0.398283
0.390000 19.713983 80.201839 -0.000000 0.332712 0.437057 -0.162793 20.104546 120.960208 -0.000000 0.075353 0.215970 -0.398296
0.395000 20.135021 80.027579 -0.000000 0.332446 0.437429 -0.162808 20.339113 120.808964 -0.000000 0.075615 0.215652 -0.398285
